<?xml version="1.0" encoding="utf-8"?>
<!-- Svg Vector Icons : http://www.onlinewebfonts.com/icon -->
<!DOCTYPE svg PUBLIC "-//W3C//DTD SVG 1.1//EN" "http://www.w3.org/Graphics/SVG/1.1/DTD/svg11.dtd">
<svg version="1.1" xmlns="http://www.w3.org/2000/svg" xmlns:xlink="http://www.w3.org/1999/xlink" x="0px" y="0px" viewBox="0 0 1000 1000" enable-background="new 0 0 1000 1000" xml:space="preserve">
<metadata> Svg Vector Icons : http://www.onlinewebfonts.com/icon </metadata>
<g><g transform="translate(0.000000,511.000000) scale(0.100000,-0.100000)"><path d="M4626.4,4998C2554,4839.9,780.6,3362.8,256.9,1354.7c-205-790.4-210-1669.7-9.9-2452.7c516.2-2045.2,2314.4-3544.5,4416.4-3682.9c1193-79,2351.5,266.8,3307.4,990.5c259.4,195.1,731.1,666.9,926.3,926.3c1459.8,1931.6,1311.6,4611.6-350.7,6350.5C7521.3,4555.8,6091.1,5109.1,4626.4,4998z M5673.7,2132.7c355.7-69.2,600.2-153.1,968.3-335.9c649.6-321.1,1269.6-859.6,1731.5-1506.7l155.6-219.8l-49.4-81.5c-175.4-298.9-691.6-869.5-1035-1148.6c-526.1-424.8-1114-711.4-1734-849.7c-293.9-64.2-1128.8-64.2-1422.7,0c-620,138.3-1205.4,424.9-1734,849.7C2210.7-880.7,1694.5-312.6,1519.1-13.7l-49.4,84l153.1,214.9c716.3,997.9,1731.5,1682.1,2759,1857.5c128.4,22.2,279.1,44.5,333.5,49.4C4912.9,2211.8,5429.2,2179.6,5673.7,2132.7z"/><path d="M4698,1861c-706.4-128.4-1286.9-666.9-1469.7-1358.5c-56.8-219.8-56.8-674.3,2.5-889.2c180.3-657,696.6-1168.3,1336.3-1323.9c229.7-56.8,637.3-56.8,864.5,0c516.3,126,978.1,501.4,1210.3,988c128.4,274.2,170.4,457,170.4,780.5c0,335.9-39.5,516.2-180.3,802.8c-227.2,461.9-622.4,795.4-1126.3,951C5310.6,1870.9,4890.7,1898.1,4698,1861z M5283.4,1255.9C5812,1120,6182.5,682.8,6224.5,149.3c61.7-765.7-639.7-1420.3-1398-1304.2c-662,98.8-1138.7,726.2-1044.8,1375.8c32.1,219.8,158.1,494,301.3,657C4381.9,1213.9,4861.1,1364.5,5283.4,1255.9z"/><path d="M4789.4,922.4c-251.9-61.7-484.1-256.9-595.3-501.4c-61.8-130.9-71.6-185.3-71.6-363.1c0-187.7,9.9-229.7,79-373c96.3-195.1,251.9-345.8,447.1-437.2c118.6-54.3,175.4-66.7,350.8-66.7c249.5,0,419.9,66.7,602.7,234.7c200.1,182.8,321.1,516.2,274.2,755.8l-14.8,91.4l-46.9-76.6c-130.9-214.9-444.6-261.8-632.3-98.8c-116.1,103.7-158.1,190.2-158.1,340.9c0,192.7,91.4,328.5,271.7,402.6l84,37.1l-133.4,39.5C5108.1,949.6,4917.9,954.5,4789.4,922.4z"/></g></g>
</svg>