<?xml version="1.0" standalone="no"?>
<!DOCTYPE svg PUBLIC "-//W3C//DTD SVG 20010904//EN"
 "http://www.w3.org/TR/2001/REC-SVG-20010904/DTD/svg10.dtd">
<svg version="1.0" xmlns="http://www.w3.org/2000/svg"
 width="835.000000pt" height="679.000000pt" viewBox="0 0 835.000000 679.000000"
 preserveAspectRatio="xMidYMid meet">

<g transform="translate(0.000000,679.000000) scale(0.100000,-0.100000)"
fill="#000000" stroke="none">
<path d="M240 6767 c-90 -25 -164 -89 -204 -176 -28 -64 -28 -188 1 -252 30
-66 86 -124 151 -156 l57 -28 433 -5 434 -5 120 -320 c66 -176 249 -660 405
-1075 157 -415 395 -1045 528 -1400 134 -355 325 -860 424 -1123 100 -264 181
-482 181 -486 0 -4 -34 -29 -76 -56 -144 -94 -282 -264 -347 -426 -177 -444
18 -953 446 -1164 141 -69 225 -88 392 -88 112 0 156 4 220 22 89 24 221 84
291 131 170 118 312 321 364 525 39 149 37 311 -6 498 l-6 27 922 0 c874 0
922 -1 915 -17 -43 -109 -51 -345 -16 -487 80 -330 331 -589 656 -677 116 -32
315 -32 440 -1 228 57 433 211 558 419 155 258 169 611 36 876 -125 248 -327
411 -607 490 l-77 22 -1739 5 -1740 5 -77 205 c-43 113 -78 211 -79 217 0 10
417 13 2018 15 l2017 3 46 23 c61 30 114 82 143 140 12 26 67 191 121 367 53
176 243 795 422 1375 178 580 329 1077 336 1103 8 37 8 63 -2 110 -23 114 -92
197 -195 236 l-57 21 -3065 0 -3064 0 -10 23 c-5 12 -86 224 -180 471 -94 248
-179 464 -190 480 -30 49 -81 93 -135 118 l-50 23 -555 2 c-418 2 -566 -1
-600 -10z m3683 -1819 c23 -285 67 -861 67 -864 0 -2 -324 -4 -719 -4 l-719 0
-10 28 c-5 15 -85 224 -176 465 -91 241 -166 443 -166 448 0 5 341 9 859 9
l858 0 6 -82z m1777 55 c0 -19 -58 -782 -70 -920 0 -2 -299 -3 -664 -3 l-664
0 -6 63 c-9 83 -66 844 -66 868 0 18 24 19 735 19 l735 0 0 -27z m1771 -448
l-146 -475 -694 0 -693 0 5 33 c3 17 20 231 39 475 l32 442 802 0 801 0 -146
-475z m-3424 -1215 c18 -228 30 -421 28 -427 -3 -10 -121 -13 -540 -13 l-536
0 -14 35 c-29 69 -305 808 -305 817 0 4 300 7 667 6 l668 -3 32 -415z m1554
416 c2 -3 -10 -186 -28 -408 -18 -222 -32 -413 -33 -425 l0 -23 -569 0 c-355
0 -572 4 -576 10 -6 10 -65 737 -65 808 l0 42 633 0 c349 0 636 -2 638 -4z
m1616 -18 c-2 -13 -39 -135 -82 -273 -42 -137 -98 -320 -124 -405 l-48 -155
-548 -3 c-302 -1 -552 1 -557 6 -7 7 45 743 57 820 l6 32 651 0 650 0 -5 -22z
m-3949 -2543 c73 -22 154 -99 182 -173 52 -137 -6 -293 -134 -360 -43 -22 -64
-27 -131 -27 -70 0 -87 4 -134 30 -161 89 -200 302 -80 439 81 91 186 124 297
91z m3594 -13 c65 -29 104 -66 137 -134 58 -116 37 -243 -54 -335 -41 -40 -65
-55 -110 -69 -71 -20 -155 -15 -211 14 -48 24 -120 100 -139 146 -39 93 -24
206 38 288 35 45 121 104 166 112 47 8 129 -2 173 -22z"/>
</g>
</svg>
