<?xml version="1.0" standalone="no"?>
<!DOCTYPE svg PUBLIC "-//W3C//DTD SVG 20010904//EN"
 "http://www.w3.org/TR/2001/REC-SVG-20010904/DTD/svg10.dtd">
<svg version="1.0" xmlns="http://www.w3.org/2000/svg"
 width="187.000000pt" height="152.000000pt" viewBox="0 0 187.000000 152.000000"
 preserveAspectRatio="xMidYMid meet">

<g transform="translate(0.000000,152.000000) scale(0.100000,-0.100000)"
fill="#000000" stroke="none">
<path d="M25 1495 c-28 -27 -31 -45 -14 -78 18 -34 27 -37 135 -37 l100 0 186
-492 187 -493 -35 -32 c-76 -71 -93 -165 -46 -254 49 -94 162 -133 258 -90 78
36 130 133 117 218 l-5 33 201 0 201 0 0 -58 c0 -75 31 -136 89 -177 37 -26
51 -30 111 -30 60 0 74 4 112 30 60 43 88 96 88 168 0 91 -43 158 -122 192
-32 13 -98 15 -431 15 l-394 0 -17 43 c-9 23 -16 46 -16 50 0 4 204 7 453 7
l454 0 20 23 c19 21 213 630 213 669 0 9 -9 26 -19 39 l-19 24 -697 5 -697 5
-44 110 c-24 60 -51 115 -60 122 -12 9 -59 13 -151 13 -129 0 -135 -1 -158
-25z m848 -372 c3 -5 8 -54 12 -110 l8 -103 -155 0 c-113 0 -158 3 -165 13 -5
6 -24 52 -42 101 -27 72 -31 90 -20 97 17 11 356 12 362 2z m399 -43 c-1 -25
-5 -73 -8 -108 l-6 -63 -146 3 -147 3 -9 93 c-4 50 -5 99 -2 107 5 13 30 15
163 13 l158 -3 -3 -45z m428 39 c0 -6 -14 -56 -31 -110 l-31 -100 -151 3 -152
3 3 75 c1 41 5 90 8 108 l5 32 174 0 c120 0 175 -3 175 -11z m-796 -340 c3
-34 6 -77 6 -95 l0 -34 -119 0 c-104 0 -120 2 -126 18 -4 9 -20 52 -36 95
l-28 77 148 0 148 0 7 -61z m346 12 c0 -26 -3 -69 -6 -95 l-7 -46 -123 0 c-67
0 -125 3 -127 8 -3 4 -8 46 -12 95 l-7 87 141 0 141 0 0 -49z m361 26 c-5 -12
-19 -55 -30 -95 l-22 -72 -125 0 -124 0 6 83 c3 45 7 88 10 95 2 9 41 12 148
12 l146 0 -9 -23z m-847 -580 c19 -26 19 -30 5 -55 -8 -15 -27 -31 -42 -36
-22 -8 -31 -6 -52 14 -31 29 -32 56 -3 87 29 31 65 27 92 -10z m784 17 c46
-32 17 -114 -40 -114 -26 0 -58 36 -58 65 0 29 32 65 58 65 10 0 28 -7 40 -16z"/>
</g>
</svg>
